<svg id="Layer_1" data-name="Layer 1" xmlns="http://www.w3.org/2000/svg" xmlns:xlink="http://www.w3.org/1999/xlink" viewBox="0 0 12.18 12.18"><defs><style>.cls-1{fill:none;}.cls-2{clip-path:url(#clip-path);}.cls-3{fill:#414042;}.cls-4{fill:#434244;}.cls-5{fill:#454546;}.cls-6{fill:#474749;}.cls-7{fill:#49494b;}.cls-8{fill:#4b4b4d;}.cls-9{fill:#4d4d4f;}.cls-10{fill:#4f4f51;}.cls-11{fill:#505153;}.cls-12{fill:#525355;}.cls-13{fill:#545557;}.cls-14{fill:#565759;}.cls-15{fill:#58585b;}.cls-16{fill:#595a5c;}.cls-17{fill:#5b5c5e;}.cls-18{fill:#5d5e60;}.cls-19{fill:#5e5f62;}.cls-20{fill:#606163;}.cls-21{fill:#626365;}.cls-22{fill:#636467;}.cls-23{fill:#656668;}.cls-24{fill:#66686a;}.cls-25{fill:#68696c;}.cls-26{fill:#6a6b6d;}.cls-27{fill:#6b6c6f;}.cls-28{fill:#6c6e70;}.cls-29{fill:#6e6f72;}.cls-30{fill:#6f7173;}.cls-31{fill:#717275;}.cls-32{fill:#727476;}.cls-33{fill:#747578;}.cls-34{fill:#757779;}.cls-35{fill:#76787b;}.cls-36{fill:#78797c;}.cls-37{fill:#797b7d;}.cls-38{fill:#7a7c7f;}.cls-39{fill:#7c7d80;}.cls-40{fill:#7d7f81;}.cls-41{fill:#7e8083;}.cls-42{fill:#808184;}.cls-43{fill:#818385;}.cls-44{fill:#828487;}.cls-45{fill:#838588;}.cls-46{fill:#858789;}.cls-47{fill:#86888a;}.cls-48{fill:#87898c;}.cls-49{fill:#888a8d;}.cls-50{fill:#8a8c8e;}.cls-51{fill:#8b8d8f;}.cls-52{fill:#8c8e91;}.cls-53{fill:#8d8f92;}.cls-54{fill:#8e9093;}.cls-55{fill:#909294;}.cls-56{fill:#919396;}.cls-57{fill:#929497;}.cls-58{fill:#939598;}.cls-59{fill:#949799;}.cls-60{fill:#96989a;}.cls-61{fill:#97999c;}.cls-62{fill:#989a9d;}.cls-63{fill:#999b9e;}.cls-64{fill:#9a9c9f;}.cls-65{fill:#9b9ea0;}.cls-66{fill:#9d9fa1;}.cls-67{fill:#9ea0a3;}.cls-68{fill:#9fa1a4;}.cls-69{fill:#a0a2a5;}.cls-70{fill:#a1a3a6;}.cls-71{fill:#a2a4a7;}.cls-72{fill:#a3a6a8;}.cls-73{fill:#a5a7a9;}.cls-74{fill:#a6a8aa;}.cls-75{fill:#a7a9ac;}.cls-76{fill:#a8aaad;}.cls-77{fill:#a9abae;}.cls-78{fill:#aaacaf;}.cls-79{fill:#abadb0;}.cls-80{fill:#acaeb1;}.cls-81{fill:#adb0b2;}.cls-82{fill:#afb1b3;}.cls-83{fill:#b0b2b4;}.cls-84{fill:#b1b3b5;}.cls-85{fill:#b2b4b6;}.cls-86{fill:#b3b5b7;}.cls-87{fill:#b4b6b8;}.cls-88{fill:#b5b7b9;}.cls-89{fill:#b6b8ba;}.cls-90{fill:#b7b9bb;}.cls-91{fill:#b8babc;}.cls-92{fill:#b9bbbd;}.cls-93{fill:#babcbe;}.cls-94{fill:#bbbdbf;}.cls-95{fill:#bcbec0;}.cls-96{fill:#bdbfc1;}.cls-97{fill:#bec0c2;}.cls-98{fill:#bfc1c3;}.cls-99{fill:#c0c2c4;}.cls-100{fill:#c1c3c5;}.cls-101{fill:#c2c4c6;}.cls-102{fill:#c3c5c7;}.cls-103{fill:#c4c6c8;}.cls-104{fill:#c5c6c8;}.cls-105{fill:#c6c7c9;}.cls-106{fill:#c6c8ca;}.cls-107{fill:#c7c9cb;}.cls-108{fill:#c8cacc;}.cls-109{fill:#c9cbcd;}.cls-110{fill:#caccce;}.cls-111{fill:#cbcdce;}.cls-112{fill:#cccdcf;}.cls-113{fill:#cdced0;}.cls-114{fill:#cdcfd1;}.cls-115{fill:#ced0d2;}.cls-116{fill:#cfd1d2;}.cls-117{fill:#d0d1d3;}.cls-118{fill:#d1d2d4;}.cls-119{fill:#d2d3d5;}.cls-120{fill:#d2d4d5;}.cls-121{fill:#d3d5d6;}.cls-122{fill:#d4d5d7;}.cls-123{fill:#d5d6d8;}.cls-124{fill:#d5d7d8;}.cls-125{fill:#d6d8d9;}.cls-126{fill:#d7d8da;}.cls-127{fill:#d8d9da;}.cls-128{fill:#d8dadb;}.cls-129{fill:#d9dadc;}.cls-130{fill:#dadbdc;}.cls-131{fill:#dbdcdd;}.cls-132{fill:#dbdcde;}.cls-133{fill:#dcddde;}.cls-134{fill:#dddedf;}.cls-135{fill:#dddee0;}.cls-136{fill:#dedfe0;}.cls-137{fill:#dfe0e1;}.cls-138{fill:#dfe0e2;}.cls-139{fill:#e0e1e2;}.cls-140{fill:#e0e2e3;}.cls-141{fill:#e1e2e3;}.cls-142{fill:#e2e3e4;}.cls-143{fill:#e3e4e5;}.cls-144{fill:#e4e4e6;}.cls-145{fill:#e4e5e6;}.cls-146{fill:#e5e6e7;}.cls-147{fill:#e6e7e8;}.cls-148{fill:#e7e8e9;}.cls-149{fill:#e8e8e9;}.cls-150{fill:#e8e9ea;}.cls-151{fill:#e9eaea;}.cls-152{fill:#e9eaeb;}.cls-153{fill:#eaebeb;}.cls-154{fill:#eaebec;}.cls-155{fill:#ebebec;}.cls-156{fill:#ebeced;}.cls-157{fill:#ececed;}.cls-158{fill:#ecedee;}.cls-159{fill:#ededee;}.cls-160{fill:#edeeee;}.cls-161{fill:#eeeeef;}.cls-162{fill:#eeefef;}.cls-163{fill:#eeeff0;}.cls-164{fill:#efeff0;}.cls-165{fill:#eff0f0;}.cls-166{fill:#f0f0f1;}.cls-167{fill:#f0f1f1;}.cls-168{fill:#f1f1f2;}.cls-169{fill:#f1f2f2;}.cls-170{fill:#f2f2f3;}.cls-171{fill:#f2f3f3;}.cls-172{fill:#f3f3f4;}.cls-173{fill:#f3f4f4;}.cls-174{fill:#f4f4f4;}.cls-175{fill:#f4f4f5;}.cls-176{fill:#f4f5f5;}.cls-177{fill:#f5f5f5;}.cls-178{fill:#f5f5f6;}.cls-179{fill:#f5f6f6;}.cls-180{fill:#f6f6f6;}.cls-181{fill:#f6f6f7;}.cls-182{fill:#f6f7f7;}.cls-183{fill:#f7f7f7;}.cls-184{fill:#f7f7f8;}.cls-185{fill:#f7f8f8;}.cls-186{fill:#f8f8f8;}.cls-187{fill:#f8f8f9;}.cls-188{fill:#f8f9f9;}.cls-189{fill:#f9f9f9;}.cls-190{fill:#f9f9fa;}.cls-191{fill:#f9fafa;}.cls-192{fill:#fafafa;}.cls-193{fill:#fafafb;}.cls-194{fill:#fbfbfb;}.cls-195{fill:#fbfbfc;}.cls-196{fill:#fcfcfc;}.cls-197{fill:#fcfcfd;}.cls-198{fill:#fdfdfd;}.cls-199{fill:#fdfdfe;}.cls-200{fill:#fefefe;}.cls-201{fill:#feffff;}.cls-202{fill:#fff;}.cls-203{fill:#231f20;}.cls-204{clip-path:url(#clip-path-2);}.cls-205{fill:#fef9f7;}.cls-206{fill:#fdf5f1;}.cls-207{fill:#fbf1ec;}.cls-208{fill:#faeee7;}.cls-209{fill:#f9eae3;}.cls-210{fill:#f8e7df;}.cls-211{fill:#f7e4db;}.cls-212{fill:#f7e1d7;}.cls-213{fill:#f6ded3;}.cls-214{fill:#f5dbd0;}.cls-215{fill:#f4d8cc;}.cls-216{fill:#f4d6c9;}.cls-217{fill:#f3d3c5;}.cls-218{fill:#f2d0c2;}.cls-219{fill:#f2cebf;}.cls-220{fill:#f1cbbb;}.cls-221{fill:#f0c9b8;}.cls-222{fill:#efc6b5;}.cls-223{fill:#efc4b2;}.cls-224{fill:#eec1af;}.cls-225{fill:#edbfac;}.cls-226{fill:#edbcaa;}.cls-227{fill:#ecbaa7;}.cls-228{fill:#ecb8a4;}.cls-229{fill:#ebb5a1;}.cls-230{fill:#eab39f;}.cls-231{fill:#eab19c;}.cls-232{fill:#e9af99;}.cls-233{fill:#e8ad97;}.cls-234{fill:#e8aa94;}.cls-235{fill:#e7a892;}.cls-236{fill:#e7a690;}.cls-237{fill:#e6a48d;}.cls-238{fill:#e5a28b;}.cls-239{fill:#e5a089;}.cls-240{fill:#e49e86;}.cls-241{fill:#e49c84;}.cls-242{fill:#e39a82;}.cls-243{fill:#e39980;}.cls-244{fill:#e2977e;}.cls-245{fill:#e2957c;}.cls-246{fill:#e1937a;}.cls-247{fill:#e09178;}.cls-248{fill:#e09076;}.cls-249{fill:#df8e74;}.cls-250{fill:#df8c73;}.cls-251{fill:#de8b71;}.cls-252{fill:#de896f;}.cls-253{fill:#dd886e;}.cls-254{fill:#dd866c;}.cls-255{fill:#dc846a;}.cls-256{fill:#dc8369;}.cls-257{fill:#db8267;}.cls-258{fill:#db8066;}.cls-259{fill:#db7f64;}.cls-260{fill:#da7d63;}.cls-261{fill:#da7c61;}.cls-262{fill:#d97a60;}.cls-263{fill:#d9795f;}.cls-264{fill:#d8785d;}.cls-265{fill:#d8765c;}.cls-266{fill:#d8755b;}.cls-267{fill:#d77459;}.cls-268{fill:#d77358;}.cls-269{fill:#d67157;}.cls-270{fill:#d67055;}.cls-271{fill:#d66f54;}.cls-272{fill:#d56e53;}.cls-273{fill:#d56c52;}.cls-274{fill:#d46b51;}.cls-275{fill:#d46a50;}.cls-276{fill:#d4694f;}.cls-277{fill:#d3684d;}.cls-278{fill:#d3674c;}.cls-279{fill:#d3654b;}.cls-280{fill:#d2644a;}.cls-281{fill:#d26349;}.cls-282{fill:#d26248;}.cls-283{fill:#d16147;}.cls-284{fill:#d16046;}.cls-285{fill:#d15f45;}.cls-286{fill:#d05e44;}.cls-287{fill:#d05d43;}.cls-288{fill:#d05b42;}.cls-289{fill:#cf5a41;}.cls-290{fill:#cf5940;}.cls-291{fill:#cf583f;}.cls-292{fill:#cf573e;}.cls-293{fill:#ce563d;}.cls-294{fill:#ce553c;}.cls-295{fill:#ce543c;}.cls-296{fill:#cd533b;}.cls-297{fill:#cd523a;}.cls-298{fill:#cd5139;}.cls-299{fill:#cd5038;}.cls-300{fill:#cc4f38;}.cls-301{fill:#cc4e37;}.cls-302{fill:#cc4e36;}.cls-303{fill:#cc4d35;}.cls-304{fill:#cb4c35;}.cls-305{fill:#cb4b34;}.cls-306{fill:#cb4a33;}.cls-307{fill:#cb4933;}.cls-308{fill:#cb4832;}.cls-309{fill:#ca4731;}.cls-310{fill:#ca4631;}.cls-311{fill:#ca4630;}.cls-312{fill:#ca4530;}.cls-313{fill:#c9442f;}.cls-314{fill:#c9432e;}.cls-315{fill:#c9422e;}.cls-316{fill:#c9412d;}.cls-317{fill:#c8402c;}.cls-318{fill:#c83f2c;}.cls-319{fill:#c83e2b;}.cls-320{fill:#c83d2b;}.cls-321{fill:#c83d2a;}.cls-322{fill:#c73c2a;}.cls-323{fill:#c73b29;}.cls-324{fill:#c73a29;}.cls-325{fill:#c73a28;}.cls-326{fill:#c73928;}.cls-327{fill:#c73828;}.cls-328{fill:#c63827;}.cls-329{fill:#c63727;}.cls-330{fill:#c63627;}.cls-331{fill:#c63626;}.cls-332{fill:#c63526;}.cls-333{fill:#c63426;}.cls-334{fill:#c63425;}.cls-335{fill:#c53325;}.cls-336{fill:#c53225;}.cls-337{fill:#c53224;}.cls-338{fill:#c53124;}.cls-339{fill:#c53024;}.cls-340{fill:#c52f23;}.cls-341{fill:#c42e23;}.cls-342{fill:#c42e22;}.cls-343{fill:#c42d22;}.cls-344{fill:#c42c22;}.cls-345{fill:#c42b21;}.cls-346{fill:#c42a21;}.cls-347{fill:#c32921;}.cls-348{fill:#c32920;}.cls-349{fill:#c32820;}.cls-350{fill:#c32720;}.cls-351{fill:#c3261f;}.cls-352{fill:#c3251f;}.cls-353{fill:#c3241f;}.cls-354{fill:#c2231e;}.cls-355{fill:#c2221e;}.cls-356{fill:#c2211e;}.cls-357{fill:#c2201e;}.cls-358{fill:#c2201d;}.cls-359{fill:#c21f1d;}.cls-360{fill:#c21e1d;}.cls-361{fill:#c21d1d;}.cls-362{fill:#c11d1d;}.cls-363{fill:#c11c1d;}.cls-364{fill:#c11c1c;}.cls-365{fill:#c11b1c;}.cls-366{fill:#c11a1c;}.cls-367{fill:#c1191c;}.cls-368{fill:#c1181c;}.cls-369{fill:#c1171c;}.cls-370{fill:#c1171b;}.cls-371{fill:#c1161b;}.cls-372{fill:#c0161b;}.cls-373{fill:#c0151b;}</style><clipPath id="clip-path" transform="translate(-1.09 -1.14)"><circle class="cls-1" cx="7.18" cy="7.23" r="5.76"/></clipPath><clipPath id="clip-path-2" transform="translate(-1.09 -1.14)"><path class="cls-1" d="M7.18,13.1a5.87,5.87,0,1,1,5.87-5.87A5.87,5.87,0,0,1,7.18,13.1Zm0-11.52a5.65,5.65,0,1,0,5.65,5.65A5.65,5.65,0,0,0,7.18,1.58Z"/></clipPath></defs><title>mylogo</title><g class="cls-2"><rect class="cls-3" x="0.33" y="0.33" width="11.52" height="11.52"/><circle class="cls-3" cx="6.09" cy="6.09" r="5.76"/><circle class="cls-4" cx="6.09" cy="6.09" r="5.74"/><circle class="cls-5" cx="6.09" cy="6.09" r="5.71"/><circle class="cls-6" cx="6.09" cy="6.09" r="5.69"/><circle class="cls-7" cx="6.09" cy="6.09" r="5.66"/><circle class="cls-8" cx="6.09" cy="6.09" r="5.64"/><circle class="cls-9" cx="6.09" cy="6.09" r="5.61"/><circle class="cls-10" cx="6.09" cy="6.09" r="5.59"/><circle class="cls-11" cx="6.09" cy="6.09" r="5.56"/><circle class="cls-12" cx="6.09" cy="6.09" r="5.54"/><circle class="cls-13" cx="6.09" cy="6.09" r="5.51"/><circle class="cls-14" cx="6.09" cy="6.09" r="5.49"/><circle class="cls-15" cx="6.09" cy="6.09" r="5.46"/><circle class="cls-16" cx="6.09" cy="6.09" r="5.44"/><circle class="cls-17" cx="6.09" cy="6.09" r="5.41"/><circle class="cls-18" cx="6.09" cy="6.09" r="5.38"/><circle class="cls-19" cx="6.09" cy="6.09" r="5.36"/><circle class="cls-20" cx="6.09" cy="6.09" r="5.33"/><circle class="cls-21" cx="6.09" cy="6.09" r="5.31"/><circle class="cls-22" cx="6.09" cy="6.09" r="5.28"/><circle class="cls-23" cx="6.09" cy="6.09" r="5.26"/><circle class="cls-24" cx="6.09" cy="6.09" r="5.23"/><circle class="cls-25" cx="6.09" cy="6.09" r="5.21"/><circle class="cls-26" cx="6.09" cy="6.09" r="5.18"/><circle class="cls-27" cx="6.09" cy="6.09" r="5.16"/><circle class="cls-28" cx="6.09" cy="6.09" r="5.13"/><circle class="cls-29" cx="6.09" cy="6.09" r="5.11"/><circle class="cls-30" cx="6.09" cy="6.09" r="5.08"/><circle class="cls-31" cx="6.09" cy="6.09" r="5.06"/><circle class="cls-32" cx="6.09" cy="6.09" r="5.03"/><circle class="cls-33" cx="6.09" cy="6.09" r="5.01"/><circle class="cls-34" cx="6.09" cy="6.09" r="4.98"/><circle class="cls-35" cx="6.09" cy="6.09" r="4.96"/><circle class="cls-36" cx="6.09" cy="6.09" r="4.93"/><circle class="cls-37" cx="6.09" cy="6.09" r="4.91"/><circle class="cls-38" cx="6.09" cy="6.09" r="4.88"/><circle class="cls-39" cx="6.09" cy="6.09" r="4.86"/><circle class="cls-40" cx="6.09" cy="6.09" r="4.83"/><circle class="cls-41" cx="6.09" cy="6.09" r="4.81"/><circle class="cls-42" cx="6.09" cy="6.09" r="4.78"/><circle class="cls-43" cx="6.09" cy="6.09" r="4.75"/><circle class="cls-44" cx="6.09" cy="6.09" r="4.73"/><circle class="cls-45" cx="6.09" cy="6.09" r="4.7"/><circle class="cls-46" cx="6.09" cy="6.09" r="4.68"/><circle class="cls-47" cx="6.09" cy="6.09" r="4.66"/><circle class="cls-48" cx="6.09" cy="6.09" r="4.63"/><circle class="cls-49" cx="6.09" cy="6.09" r="4.61"/><circle class="cls-50" cx="6.09" cy="6.09" r="4.58"/><circle class="cls-51" cx="6.09" cy="6.09" r="4.55"/><circle class="cls-52" cx="6.09" cy="6.09" r="4.53"/><circle class="cls-53" cx="6.09" cy="6.09" r="4.5"/><circle class="cls-54" cx="6.09" cy="6.09" r="4.48"/><circle class="cls-55" cx="6.09" cy="6.09" r="4.45"/><circle class="cls-56" cx="6.09" cy="6.09" r="4.43"/><circle class="cls-57" cx="6.09" cy="6.09" r="4.4"/><circle class="cls-58" cx="6.09" cy="6.09" r="4.38"/><circle class="cls-59" cx="6.09" cy="6.09" r="4.35"/><circle class="cls-60" cx="6.09" cy="6.09" r="4.33"/><circle class="cls-61" cx="6.09" cy="6.09" r="4.3"/><circle class="cls-62" cx="6.09" cy="6.09" r="4.28"/><circle class="cls-63" cx="6.09" cy="6.09" r="4.25"/><circle class="cls-64" cx="6.09" cy="6.09" r="4.23"/><circle class="cls-65" cx="6.09" cy="6.09" r="4.2"/><circle class="cls-66" cx="6.09" cy="6.09" r="4.18"/><circle class="cls-67" cx="6.09" cy="6.09" r="4.15"/><circle class="cls-68" cx="6.09" cy="6.09" r="4.13"/><circle class="cls-69" cx="6.09" cy="6.09" r="4.1"/><circle class="cls-70" cx="6.09" cy="6.09" r="4.08"/><circle class="cls-71" cx="6.09" cy="6.09" r="4.05"/><circle class="cls-72" cx="6.09" cy="6.09" r="4.03"/><circle class="cls-73" cx="6.09" cy="6.09" r="4"/><circle class="cls-74" cx="6.09" cy="6.09" r="3.98"/><circle class="cls-75" cx="6.09" cy="6.09" r="3.95"/><circle class="cls-76" cx="6.09" cy="6.09" r="3.92"/><circle class="cls-77" cx="6.09" cy="6.09" r="3.9"/><circle class="cls-78" cx="6.09" cy="6.09" r="3.87"/><circle class="cls-79" cx="6.09" cy="6.09" r="3.85"/><circle class="cls-80" cx="6.09" cy="6.09" r="3.82"/><circle class="cls-81" cx="6.09" cy="6.09" r="3.8"/><circle class="cls-82" cx="6.09" cy="6.09" r="3.77"/><circle class="cls-83" cx="6.09" cy="6.09" r="3.75"/><circle class="cls-84" cx="6.09" cy="6.09" r="3.72"/><circle class="cls-85" cx="6.09" cy="6.09" r="3.7"/><circle class="cls-86" cx="6.09" cy="6.09" r="3.67"/><circle class="cls-87" cx="6.09" cy="6.09" r="3.65"/><circle class="cls-88" cx="6.09" cy="6.09" r="3.62"/><circle class="cls-89" cx="6.09" cy="6.09" r="3.6"/><circle class="cls-90" cx="6.09" cy="6.09" r="3.57"/><circle class="cls-91" cx="6.09" cy="6.09" r="3.55"/><circle class="cls-92" cx="6.09" cy="6.09" r="3.52"/><circle class="cls-93" cx="6.09" cy="6.09" r="3.5"/><circle class="cls-94" cx="6.09" cy="6.09" r="3.47"/><circle class="cls-95" cx="6.09" cy="6.09" r="3.45"/><circle class="cls-96" cx="6.09" cy="6.09" r="3.42"/><circle class="cls-97" cx="6.09" cy="6.09" r="3.4"/><circle class="cls-98" cx="6.09" cy="6.09" r="3.37"/><circle class="cls-99" cx="6.09" cy="6.09" r="3.35"/><circle class="cls-100" cx="6.09" cy="6.09" r="3.32"/><circle class="cls-101" cx="6.09" cy="6.09" r="3.3"/><circle class="cls-102" cx="6.09" cy="6.09" r="3.27"/><circle class="cls-103" cx="6.09" cy="6.09" r="3.25"/><circle class="cls-104" cx="6.09" cy="6.09" r="3.22"/><circle class="cls-105" cx="6.09" cy="6.09" r="3.2"/><circle class="cls-106" cx="6.09" cy="6.09" r="3.17"/><circle class="cls-107" cx="6.09" cy="6.09" r="3.15"/><circle class="cls-108" cx="6.09" cy="6.09" r="3.12"/><circle class="cls-109" cx="6.09" cy="6.09" r="3.1"/><circle class="cls-110" cx="6.09" cy="6.09" r="3.07"/><circle class="cls-111" cx="6.09" cy="6.09" r="3.04"/><circle class="cls-112" cx="6.09" cy="6.09" r="3.02"/><circle class="cls-113" cx="6.09" cy="6.09" r="2.99"/><circle class="cls-114" cx="6.09" cy="6.09" r="2.97"/><circle class="cls-115" cx="6.09" cy="6.09" r="2.94"/><circle class="cls-116" cx="6.09" cy="6.09" r="2.92"/><circle class="cls-117" cx="6.09" cy="6.09" r="2.89"/><circle class="cls-118" cx="6.09" cy="6.09" r="2.87"/><circle class="cls-119" cx="6.09" cy="6.09" r="2.84"/><circle class="cls-120" cx="6.09" cy="6.09" r="2.82"/><circle class="cls-121" cx="6.09" cy="6.09" r="2.79"/><circle class="cls-122" cx="6.09" cy="6.09" r="2.77"/><circle class="cls-123" cx="6.09" cy="6.09" r="2.74"/><circle class="cls-124" cx="6.09" cy="6.09" r="2.72"/><circle class="cls-125" cx="6.09" cy="6.09" r="2.69"/><circle class="cls-126" cx="6.09" cy="6.09" r="2.67"/><circle class="cls-127" cx="6.09" cy="6.09" r="2.64"/><circle class="cls-128" cx="6.09" cy="6.09" r="2.62"/><circle class="cls-129" cx="6.09" cy="6.09" r="2.59"/><circle class="cls-130" cx="6.09" cy="6.09" r="2.57"/><circle class="cls-131" cx="6.09" cy="6.09" r="2.54"/><circle class="cls-132" cx="6.09" cy="6.09" r="2.52"/><circle class="cls-133" cx="6.09" cy="6.09" r="2.49"/><circle class="cls-134" cx="6.09" cy="6.09" r="2.47"/><circle class="cls-135" cx="6.09" cy="6.09" r="2.44"/><circle class="cls-136" cx="6.09" cy="6.09" r="2.41"/><circle class="cls-137" cx="6.09" cy="6.09" r="2.39"/><circle class="cls-138" cx="6.09" cy="6.09" r="2.36"/><circle class="cls-139" cx="6.09" cy="6.09" r="2.34"/><circle class="cls-140" cx="6.09" cy="6.09" r="2.32"/><circle class="cls-141" cx="6.09" cy="6.09" r="2.29"/><circle class="cls-142" cx="6.09" cy="6.09" r="2.27"/><circle class="cls-142" cx="6.09" cy="6.09" r="2.24"/><circle class="cls-143" cx="6.09" cy="6.09" r="2.21"/><circle class="cls-144" cx="6.09" cy="6.09" r="2.19"/><circle class="cls-145" cx="6.09" cy="6.09" r="2.16"/><circle class="cls-146" cx="6.09" cy="6.09" r="2.14"/><circle class="cls-146" cx="6.09" cy="6.09" r="2.11"/><circle class="cls-147" cx="6.09" cy="6.09" r="2.09"/><circle class="cls-147" cx="6.09" cy="6.09" r="2.06"/><circle class="cls-148" cx="6.09" cy="6.09" r="2.04"/><circle class="cls-149" cx="6.09" cy="6.09" r="2.01"/><circle class="cls-150" cx="6.09" cy="6.09" r="1.99"/><circle class="cls-151" cx="6.09" cy="6.09" r="1.96"/><circle class="cls-152" cx="6.09" cy="6.09" r="1.94"/><circle class="cls-153" cx="6.09" cy="6.09" r="1.91"/><circle class="cls-154" cx="6.09" cy="6.09" r="1.89"/><circle class="cls-155" cx="6.09" cy="6.09" r="1.86"/><circle class="cls-156" cx="6.09" cy="6.09" r="1.84"/><circle class="cls-157" cx="6.09" cy="6.09" r="1.81"/><circle class="cls-158" cx="6.09" cy="6.09" r="1.79"/><circle class="cls-159" cx="6.09" cy="6.09" r="1.76"/><circle class="cls-160" cx="6.09" cy="6.09" r="1.74"/><circle class="cls-161" cx="6.09" cy="6.09" r="1.71"/><circle class="cls-162" cx="6.09" cy="6.09" r="1.69"/><circle class="cls-163" cx="6.09" cy="6.09" r="1.66"/><circle class="cls-164" cx="6.09" cy="6.09" r="1.64"/><circle class="cls-165" cx="6.09" cy="6.09" r="1.61"/><circle class="cls-166" cx="6.09" cy="6.09" r="1.58"/><circle class="cls-167" cx="6.09" cy="6.09" r="1.56"/><circle class="cls-168" cx="6.09" cy="6.09" r="1.53"/><circle class="cls-168" cx="6.09" cy="6.09" r="1.51"/><circle class="cls-169" cx="6.09" cy="6.09" r="1.48"/><circle class="cls-170" cx="6.09" cy="6.09" r="1.46"/><circle class="cls-171" cx="6.09" cy="6.09" r="1.43"/><circle class="cls-171" cx="6.09" cy="6.09" r="1.41"/><circle class="cls-172" cx="6.09" cy="6.09" r="1.38"/><circle class="cls-173" cx="6.09" cy="6.09" r="1.36"/><circle class="cls-174" cx="6.09" cy="6.09" r="1.33"/><circle class="cls-175" cx="6.09" cy="6.09" r="1.31"/><circle class="cls-176" cx="6.09" cy="6.09" r="1.28"/><circle class="cls-177" cx="6.09" cy="6.09" r="1.26"/><circle class="cls-178" cx="6.09" cy="6.09" r="1.23"/><circle class="cls-179" cx="6.09" cy="6.09" r="1.21"/><circle class="cls-180" cx="6.09" cy="6.09" r="1.18"/><circle class="cls-181" cx="6.09" cy="6.09" r="1.16"/><circle class="cls-182" cx="6.09" cy="6.09" r="1.13"/><circle class="cls-183" cx="6.09" cy="6.09" r="1.11"/><circle class="cls-183" cx="6.09" cy="6.09" r="1.08"/><circle class="cls-184" cx="6.09" cy="6.09" r="1.06"/><circle class="cls-185" cx="6.09" cy="6.09" r="1.03"/><circle class="cls-186" cx="6.09" cy="6.09" r="1.01"/><circle class="cls-187" cx="6.09" cy="6.09" r="0.98"/><circle class="cls-188" cx="6.09" cy="6.09" r="0.96"/><circle class="cls-189" cx="6.09" cy="6.09" r="0.93"/><circle class="cls-189" cx="6.09" cy="6.09" r="0.91"/><circle class="cls-190" cx="6.09" cy="6.09" r="0.88"/><circle class="cls-191" cx="6.09" cy="6.09" r="0.86"/><circle class="cls-192" cx="6.09" cy="6.09" r="0.83"/><circle class="cls-192" cx="6.09" cy="6.09" r="0.81"/><circle class="cls-193" cx="6.09" cy="6.09" r="0.78"/><circle class="cls-194" cx="6.09" cy="6.09" r="0.76"/><circle class="cls-194" cx="6.09" cy="6.09" r="0.73"/><circle class="cls-194" cx="6.09" cy="6.09" r="0.7"/><circle class="cls-195" cx="6.09" cy="6.09" r="0.68"/><circle class="cls-196" cx="6.09" cy="6.09" r="0.65"/><circle class="cls-196" cx="6.09" cy="6.09" r="0.63"/><circle class="cls-196" cx="6.09" cy="6.09" r="0.6"/><circle class="cls-197" cx="6.09" cy="6.09" r="0.58"/><circle class="cls-198" cx="6.09" cy="6.09" r="0.55"/><circle class="cls-198" cx="6.09" cy="6.09" r="0.53"/><circle class="cls-198" cx="6.09" cy="6.09" r="0.5"/><circle class="cls-198" cx="6.09" cy="6.09" r="0.48"/><circle class="cls-199" cx="6.09" cy="6.09" r="0.45"/><circle class="cls-200" cx="6.09" cy="6.09" r="0.43"/><circle class="cls-200" cx="6.09" cy="6.09" r="0.4"/><circle class="cls-200" cx="6.09" cy="6.09" r="0.38"/><circle class="cls-200" cx="6.09" cy="6.09" r="0.35"/><circle class="cls-200" cx="6.09" cy="6.09" r="0.33"/><circle class="cls-200" cx="6.09" cy="6.09" r="0.3"/><circle class="cls-201" cx="6.09" cy="6.09" r="0.28"/><circle class="cls-202" cx="6.09" cy="6.09" r="0.25"/><circle class="cls-202" cx="6.09" cy="6.09" r="0.23"/><circle class="cls-202" cx="6.09" cy="6.09" r="0.2"/><circle class="cls-202" cx="6.09" cy="6.09" r="0.18"/><circle class="cls-202" cx="6.09" cy="6.09" r="0.15"/><circle class="cls-202" cx="6.09" cy="6.09" r="0.13"/><circle class="cls-202" cx="6.09" cy="6.09" r="0.1"/><circle class="cls-202" cx="6.09" cy="6.09" r="0.07"/><circle class="cls-202" cx="6.09" cy="6.09" r="0.05"/><circle class="cls-202" cx="6.09" cy="6.09" r="0.02"/></g><path class="cls-203" d="M7.18,13.32a6.09,6.09,0,1,1,6.09-6.09h0A6.1,6.1,0,0,1,7.18,13.32Zm0-11.52a5.43,5.43,0,1,0,5.43,5.43h0A5.44,5.44,0,0,0,7.18,1.79Z" transform="translate(-1.09 -1.14)"/><g class="cls-204"><polygon class="cls-202" points="4.14 0.44 0.44 2.58 0.44 0.44 4.14 0.44"/><polygon class="cls-202" points="4.23 0.44 0.44 2.63 0.44 2.58 4.14 0.44 4.23 0.44"/><polygon class="cls-205" points="4.33 0.44 0.44 2.68 0.44 2.63 4.23 0.44 4.33 0.44"/><polygon class="cls-206" points="4.42 0.44 0.44 2.74 0.44 2.68 4.33 0.44 4.42 0.44"/><polygon class="cls-207" points="4.51 0.44 0.44 2.79 0.44 2.74 4.42 0.44 4.51 0.44"/><polygon class="cls-208" points="4.6 0.44 0.44 2.84 0.44 2.79 4.51 0.44 4.6 0.44"/><polygon class="cls-209" points="4.7 0.44 0.44 2.9 0.44 2.84 4.6 0.44 4.7 0.44"/><polygon class="cls-210" points="4.79 0.44 0.44 2.95 0.44 2.9 4.7 0.44 4.79 0.44"/><polygon class="cls-211" points="4.88 0.44 0.44 3 0.44 2.95 4.79 0.44 4.88 0.44"/><polygon class="cls-212" points="4.97 0.44 0.44 3.06 0.44 3 4.88 0.44 4.97 0.44"/><polygon class="cls-213" points="5.06 0.44 0.44 3.11 0.44 3.06 4.97 0.44 5.06 0.44"/><polygon class="cls-214" points="5.16 0.44 0.44 3.16 0.44 3.11 5.06 0.44 5.16 0.44"/><polygon class="cls-215" points="5.25 0.44 0.44 3.21 0.44 3.16 5.16 0.44 5.25 0.44"/><polygon class="cls-216" points="5.34 0.44 0.44 3.27 0.44 3.21 5.25 0.44 5.34 0.44"/><polygon class="cls-217" points="5.43 0.44 0.44 3.32 0.44 3.27 5.34 0.44 5.43 0.44"/><polygon class="cls-218" points="5.52 0.44 0.44 3.38 0.44 3.32 5.43 0.44 5.52 0.44"/><polygon class="cls-219" points="5.62 0.44 0.44 3.43 0.44 3.38 5.52 0.44 5.62 0.44"/><polygon class="cls-220" points="5.71 0.44 0.44 3.48 0.44 3.43 5.62 0.44 5.71 0.44"/><polygon class="cls-221" points="5.8 0.44 0.44 3.53 0.44 3.48 5.71 0.44 5.8 0.44"/><polygon class="cls-222" points="5.89 0.44 0.44 3.59 0.44 3.53 5.8 0.44 5.89 0.44"/><polygon class="cls-223" points="5.98 0.44 0.44 3.64 0.44 3.59 5.89 0.44 5.98 0.44"/><polygon class="cls-224" points="6.08 0.44 0.44 3.69 0.44 3.64 5.98 0.44 6.08 0.44"/><polygon class="cls-225" points="6.17 0.44 0.44 3.75 0.44 3.69 6.08 0.44 6.17 0.44"/><polygon class="cls-226" points="6.26 0.44 0.44 3.8 0.44 3.75 6.17 0.44 6.26 0.44"/><polygon class="cls-227" points="6.35 0.44 0.44 3.85 0.44 3.8 6.26 0.44 6.35 0.44"/><polygon class="cls-228" points="6.44 0.44 0.44 3.91 0.44 3.85 6.35 0.44 6.44 0.44"/><polygon class="cls-229" points="6.54 0.44 0.44 3.96 0.44 3.91 6.44 0.44 6.54 0.44"/><polygon class="cls-230" points="6.63 0.44 0.44 4.01 0.44 3.96 6.54 0.44 6.63 0.44"/><polygon class="cls-231" points="6.72 0.44 0.44 4.07 0.44 4.01 6.63 0.44 6.72 0.44"/><polygon class="cls-232" points="6.81 0.44 0.44 4.12 0.44 4.07 6.72 0.44 6.81 0.44"/><polygon class="cls-233" points="6.9 0.44 0.44 4.17 0.44 4.12 6.81 0.44 6.9 0.44"/><polygon class="cls-234" points="7 0.44 0.44 4.22 0.44 4.17 6.9 0.44 7 0.44"/><polygon class="cls-235" points="7.09 0.44 0.44 4.28 0.44 4.22 7 0.44 7.09 0.44"/><polygon class="cls-236" points="7.18 0.44 0.44 4.33 0.44 4.28 7.09 0.44 7.18 0.44"/><polygon class="cls-237" points="7.27 0.44 0.44 4.38 0.44 4.33 7.18 0.44 7.27 0.44"/><polygon class="cls-238" points="7.37 0.44 0.44 4.44 0.44 4.38 7.27 0.44 7.37 0.44"/><polygon class="cls-239" points="7.46 0.44 0.44 4.49 0.44 4.44 7.37 0.44 7.46 0.44"/><polygon class="cls-240" points="7.55 0.44 0.44 4.54 0.44 4.49 7.46 0.44 7.55 0.44"/><polygon class="cls-241" points="7.64 0.44 0.44 4.6 0.44 4.54 7.55 0.44 7.64 0.44"/><polygon class="cls-242" points="7.73 0.44 0.44 4.65 0.44 4.6 7.64 0.44 7.73 0.44"/><polygon class="cls-243" points="7.83 0.44 0.44 4.7 0.44 4.65 7.73 0.44 7.83 0.44"/><polygon class="cls-244" points="7.92 0.44 0.44 4.76 0.44 4.7 7.83 0.44 7.92 0.44"/><polygon class="cls-245" points="8.01 0.44 0.44 4.81 0.44 4.76 7.92 0.44 8.01 0.44"/><polygon class="cls-246" points="8.1 0.44 0.44 4.86 0.44 4.81 8.01 0.44 8.1 0.44"/><polygon class="cls-247" points="8.19 0.44 0.44 4.92 0.44 4.86 8.1 0.44 8.19 0.44"/><polygon class="cls-248" points="8.29 0.44 0.44 4.97 0.44 4.92 8.19 0.44 8.29 0.44"/><polygon class="cls-249" points="8.38 0.44 0.44 5.02 0.44 4.97 8.29 0.44 8.38 0.44"/><polygon class="cls-250" points="8.47 0.44 0.44 5.08 0.44 5.02 8.38 0.44 8.47 0.44"/><polygon class="cls-251" points="8.56 0.44 0.44 5.13 0.44 5.08 8.47 0.44 8.56 0.44"/><polygon class="cls-252" points="8.65 0.44 0.44 5.18 0.44 5.13 8.56 0.44 8.65 0.44"/><polygon class="cls-253" points="8.75 0.44 0.44 5.24 0.44 5.18 8.65 0.44 8.75 0.44"/><polygon class="cls-254" points="8.84 0.44 0.44 5.29 0.44 5.24 8.75 0.44 8.84 0.44"/><polygon class="cls-255" points="8.93 0.44 0.44 5.34 0.44 5.29 8.84 0.44 8.93 0.44"/><polygon class="cls-256" points="9.02 0.44 0.44 5.39 0.44 5.34 8.93 0.44 9.02 0.44"/><polygon class="cls-257" points="9.11 0.44 0.44 5.45 0.44 5.39 9.02 0.44 9.11 0.44"/><polygon class="cls-258" points="9.21 0.44 0.44 5.5 0.44 5.45 9.11 0.44 9.21 0.44"/><polygon class="cls-259" points="9.3 0.44 0.44 5.55 0.44 5.5 9.21 0.44 9.3 0.44"/><polygon class="cls-260" points="9.39 0.44 0.44 5.61 0.44 5.55 9.3 0.44 9.39 0.44"/><polygon class="cls-261" points="9.48 0.44 0.44 5.66 0.44 5.61 9.39 0.44 9.48 0.44"/><polygon class="cls-262" points="9.57 0.44 0.44 5.71 0.44 5.66 9.48 0.44 9.57 0.44"/><polygon class="cls-263" points="9.67 0.44 0.44 5.77 0.44 5.71 9.57 0.44 9.67 0.44"/><polygon class="cls-264" points="9.76 0.44 0.44 5.82 0.44 5.77 9.67 0.44 9.76 0.44"/><polygon class="cls-265" points="9.85 0.44 0.44 5.87 0.44 5.82 9.76 0.44 9.85 0.44"/><polygon class="cls-266" points="9.94 0.44 0.44 5.93 0.44 5.87 9.85 0.44 9.94 0.44"/><polygon class="cls-267" points="10.03 0.44 0.44 5.98 0.44 5.93 9.94 0.44 10.03 0.44"/><polygon class="cls-268" points="10.13 0.44 0.44 6.03 0.44 5.98 10.03 0.44 10.13 0.44"/><polygon class="cls-269" points="10.22 0.44 0.44 6.08 0.44 6.03 10.13 0.44 10.22 0.44"/><polygon class="cls-270" points="10.31 0.44 0.44 6.14 0.44 6.08 10.22 0.44 10.31 0.44"/><polygon class="cls-271" points="10.38 0.44 10.38 0.45 0.44 6.19 0.44 6.14 10.31 0.44 10.38 0.44"/><polygon class="cls-272" points="10.38 0.45 10.41 0.49 0.44 6.24 0.44 6.19 10.38 0.45"/><polygon class="cls-273" points="10.41 0.49 10.43 0.53 0.44 6.3 0.44 6.24 10.41 0.49"/><polygon class="cls-274" points="10.43 0.53 10.45 0.57 0.44 6.35 0.44 6.3 10.43 0.53"/><polygon class="cls-275" points="10.45 0.57 10.47 0.61 0.44 6.4 0.44 6.35 10.45 0.57"/><polygon class="cls-276" points="10.47 0.61 10.5 0.65 0.44 6.46 0.44 6.4 10.47 0.61"/><polygon class="cls-277" points="10.5 0.65 10.52 0.69 0.44 6.51 0.44 6.46 10.5 0.65"/><polygon class="cls-278" points="10.52 0.69 10.54 0.73 0.44 6.56 0.44 6.51 10.52 0.69"/><polygon class="cls-279" points="10.54 0.73 10.57 0.77 0.44 6.62 0.44 6.56 10.54 0.73"/><polygon class="cls-280" points="10.57 0.77 10.59 0.81 0.44 6.67 0.44 6.62 10.57 0.77"/><polygon class="cls-281" points="10.59 0.81 10.61 0.85 0.44 6.72 0.44 6.67 10.59 0.81"/><polygon class="cls-282" points="10.61 0.85 10.63 0.89 0.44 6.78 0.44 6.72 10.61 0.85"/><polygon class="cls-283" points="10.63 0.89 10.66 0.93 0.44 6.83 0.44 6.78 10.63 0.89"/><polygon class="cls-284" points="10.66 0.93 10.68 0.97 0.44 6.88 0.44 6.83 10.66 0.93"/><polygon class="cls-285" points="10.68 0.97 10.71 1.01 0.44 6.93 0.44 6.88 10.68 0.97"/><polygon class="cls-286" points="10.71 1.01 10.73 1.05 0.44 6.99 0.44 6.93 10.71 1.01"/><polygon class="cls-287" points="10.73 1.05 10.75 1.09 0.44 7.04 0.44 6.99 10.73 1.05"/><polygon class="cls-288" points="10.75 1.09 10.78 1.13 0.44 7.1 0.44 7.04 10.75 1.09"/><polygon class="cls-289" points="10.78 1.13 10.8 1.17 0.44 7.15 0.44 7.1 10.78 1.13"/><polygon class="cls-290" points="10.8 1.17 10.82 1.21 0.44 7.2 0.44 7.15 10.8 1.17"/><polygon class="cls-291" points="10.82 1.21 10.84 1.25 0.44 7.25 0.44 7.2 10.82 1.21"/><polygon class="cls-292" points="10.84 1.25 10.87 1.29 0.44 7.31 0.44 7.25 10.84 1.25"/><polygon class="cls-293" points="10.87 1.29 10.89 1.33 0.44 7.36 0.44 7.31 10.87 1.29"/><polygon class="cls-294" points="10.89 1.33 10.91 1.37 0.44 7.41 0.44 7.36 10.89 1.33"/><polygon class="cls-295" points="10.91 1.37 10.94 1.41 0.44 7.47 0.44 7.41 10.91 1.37"/><polygon class="cls-296" points="10.94 1.41 10.96 1.45 0.44 7.52 0.44 7.47 10.94 1.41"/><polygon class="cls-297" points="10.96 1.45 10.98 1.49 0.44 7.58 0.44 7.52 10.96 1.45"/><polygon class="cls-298" points="10.98 1.49 11 1.53 0.44 7.63 0.44 7.58 10.98 1.49"/><polygon class="cls-299" points="11 1.53 11.03 1.57 0.44 7.68 0.44 7.63 11 1.53"/><polygon class="cls-300" points="11.03 1.57 11.05 1.61 0.44 7.73 0.44 7.68 11.03 1.57"/><polygon class="cls-301" points="11.05 1.61 11.07 1.65 0.44 7.79 0.44 7.73 11.05 1.61"/><polygon class="cls-302" points="11.07 1.65 11.1 1.69 0.44 7.84 0.44 7.79 11.07 1.65"/><polygon class="cls-303" points="11.1 1.69 11.12 1.73 0.44 7.89 0.44 7.84 11.1 1.69"/><polygon class="cls-304" points="11.12 1.73 11.14 1.77 0.44 7.95 0.44 7.89 11.12 1.73"/><polygon class="cls-305" points="11.14 1.77 11.16 1.81 0.44 8 0.44 7.95 11.14 1.77"/><polygon class="cls-306" points="11.16 1.81 11.19 1.85 0.44 8.05 0.44 8 11.16 1.81"/><polygon class="cls-307" points="11.19 1.85 11.21 1.89 0.44 8.11 0.44 8.05 11.19 1.85"/><polygon class="cls-308" points="11.21 1.89 11.23 1.93 0.44 8.16 0.44 8.11 11.21 1.89"/><polygon class="cls-309" points="11.23 1.93 11.26 1.97 0.44 8.21 0.44 8.16 11.23 1.93"/><polygon class="cls-310" points="11.26 1.97 11.28 2 0.44 8.27 0.44 8.21 11.26 1.97"/><polygon class="cls-311" points="11.28 2 11.3 2.04 0.44 8.32 0.44 8.27 11.28 2"/><polygon class="cls-312" points="11.3 2.04 11.33 2.08 0.44 8.37 0.44 8.32 11.3 2.04"/><polygon class="cls-313" points="11.33 2.08 11.35 2.13 0.44 8.43 0.44 8.37 11.33 2.08"/><polygon class="cls-314" points="11.35 2.13 11.37 2.17 0.44 8.48 0.44 8.43 11.35 2.13"/><polygon class="cls-315" points="11.37 2.17 11.4 2.21 0.44 8.53 0.44 8.48 11.37 2.17"/><polygon class="cls-316" points="11.4 2.21 11.42 2.25 0.44 8.58 0.44 8.53 11.4 2.21"/><polygon class="cls-316" points="11.42 2.25 11.44 2.29 0.44 8.64 0.44 8.58 11.42 2.25"/><polygon class="cls-317" points="11.44 2.29 11.46 2.33 0.44 8.69 0.44 8.64 11.44 2.29"/><polygon class="cls-318" points="11.46 2.33 11.49 2.37 0.44 8.74 0.44 8.69 11.46 2.33"/><polygon class="cls-319" points="11.49 2.37 11.51 2.4 0.44 8.8 0.44 8.74 11.49 2.37"/><polygon class="cls-320" points="11.51 2.4 11.53 2.44 0.44 8.85 0.44 8.8 11.51 2.4"/><polygon class="cls-321" points="11.53 2.44 11.56 2.48 0.44 8.9 0.44 8.85 11.53 2.44"/><polygon class="cls-322" points="11.56 2.48 11.58 2.52 0.44 8.96 0.44 8.9 11.56 2.48"/><polygon class="cls-323" points="11.58 2.52 11.6 2.56 0.44 9.01 0.44 8.96 11.58 2.52"/><polygon class="cls-324" points="11.6 2.56 11.63 2.6 0.44 9.06 0.44 9.01 11.6 2.56"/><polygon class="cls-325" points="11.63 2.6 11.65 2.64 0.44 9.12 0.44 9.06 11.63 2.6"/><polygon class="cls-326" points="11.65 2.64 11.67 2.68 0.44 9.17 0.44 9.12 11.65 2.64"/><polygon class="cls-327" points="11.67 2.68 11.7 2.72 0.44 9.22 0.44 9.17 11.67 2.68"/><polygon class="cls-328" points="11.7 2.72 11.72 2.76 0.44 9.28 0.44 9.22 11.7 2.72"/><polygon class="cls-329" points="11.72 2.76 11.74 2.8 0.44 9.33 0.44 9.28 11.72 2.76"/><polygon class="cls-330" points="11.74 2.8 11.74 2.81 11.74 2.85 0.44 9.38 0.44 9.38 0.44 9.33 11.74 2.8"/><polygon class="cls-331" points="11.74 2.91 0.47 9.42 0.44 9.38 11.74 2.85 11.74 2.91"/><polygon class="cls-332" points="11.74 2.96 0.49 9.46 0.47 9.42 11.74 2.91 11.74 2.96"/><polygon class="cls-333" points="11.74 3.01 0.51 9.5 0.49 9.46 11.74 2.96 11.74 3.01"/><polygon class="cls-334" points="11.74 3.07 0.53 9.54 0.51 9.5 11.74 3.01 11.74 3.07"/><polygon class="cls-335" points="11.74 3.12 0.56 9.58 0.53 9.54 11.74 3.07 11.74 3.12"/><polygon class="cls-336" points="11.74 3.17 0.58 9.62 0.56 9.58 11.74 3.12 11.74 3.17"/><polygon class="cls-337" points="11.74 3.23 0.6 9.66 0.58 9.62 11.74 3.17 11.74 3.23"/><polygon class="cls-338" points="11.74 3.28 0.63 9.7 0.6 9.66 11.74 3.23 11.74 3.28"/><polygon class="cls-338" points="11.74 3.33 0.65 9.74 0.63 9.7 11.74 3.28 11.74 3.33"/><polygon class="cls-339" points="11.74 3.39 0.67 9.78 0.65 9.74 11.74 3.33 11.74 3.39"/><polygon class="cls-340" points="11.74 3.44 0.69 9.82 0.67 9.78 11.74 3.39 11.74 3.44"/><polygon class="cls-340" points="11.74 3.49 0.72 9.86 0.69 9.82 11.74 3.44 11.74 3.49"/><polygon class="cls-341" points="11.74 3.55 0.74 9.9 0.72 9.86 11.74 3.49 11.74 3.55"/><polygon class="cls-342" points="11.74 3.6 0.76 9.94 0.74 9.9 11.74 3.55 11.74 3.6"/><polygon class="cls-343" points="11.74 3.65 0.79 9.98 0.76 9.94 11.74 3.6 11.74 3.65"/><polygon class="cls-344" points="11.74 3.71 0.81 10.02 0.79 9.98 11.74 3.65 11.74 3.71"/><polygon class="cls-344" points="11.74 3.76 0.83 10.06 0.81 10.02 11.74 3.71 11.74 3.76"/><polygon class="cls-345" points="11.74 3.81 0.85 10.1 0.83 10.06 11.74 3.76 11.74 3.81"/><polygon class="cls-345" points="11.74 3.87 0.88 10.14 0.85 10.1 11.74 3.81 11.74 3.87"/><polygon class="cls-346" points="11.74 3.92 0.9 10.18 0.88 10.14 11.74 3.87 11.74 3.92"/><polygon class="cls-346" points="11.74 3.97 0.93 10.22 0.9 10.18 11.74 3.92 11.74 3.97"/><polygon class="cls-347" points="11.74 4.02 0.95 10.26 0.93 10.22 11.74 3.97 11.74 4.02"/><polygon class="cls-348" points="11.74 4.08 0.97 10.3 0.95 10.26 11.74 4.02 11.74 4.08"/><polygon class="cls-349" points="11.74 4.13 0.99 10.34 0.97 10.3 11.74 4.08 11.74 4.13"/><polygon class="cls-349" points="11.74 4.18 1.02 10.38 0.99 10.34 11.74 4.13 11.74 4.18"/><polygon class="cls-350" points="11.74 4.24 1.04 10.42 1.02 10.38 11.74 4.18 11.74 4.24"/><polygon class="cls-350" points="11.74 4.29 1.06 10.46 1.04 10.42 11.74 4.24 11.74 4.29"/><polygon class="cls-351" points="11.74 4.34 1.09 10.5 1.06 10.46 11.74 4.29 11.74 4.34"/><polygon class="cls-351" points="11.74 4.4 1.11 10.54 1.09 10.5 11.74 4.34 11.74 4.4"/><polygon class="cls-352" points="11.74 4.45 1.13 10.58 1.11 10.54 11.74 4.4 11.74 4.45"/><polygon class="cls-352" points="11.74 4.5 1.16 10.62 1.13 10.58 11.74 4.45 11.74 4.5"/><polygon class="cls-353" points="11.74 4.55 1.18 10.65 1.16 10.62 11.74 4.5 11.74 4.55"/><polygon class="cls-353" points="11.74 4.61 1.2 10.7 1.18 10.65 11.74 4.55 11.74 4.61"/><polygon class="cls-354" points="11.74 4.66 1.22 10.73 1.2 10.7 11.74 4.61 11.74 4.66"/><polygon class="cls-354" points="11.74 4.71 1.25 10.78 1.22 10.73 11.74 4.66 11.74 4.71"/><polygon class="cls-355" points="11.74 4.77 1.27 10.81 1.25 10.78 11.74 4.71 11.74 4.77"/><polygon class="cls-355" points="11.74 4.82 1.29 10.86 1.27 10.81 11.74 4.77 11.74 4.82"/><polygon class="cls-355" points="11.74 4.87 1.32 10.89 1.29 10.86 11.74 4.82 11.74 4.87"/><polygon class="cls-356" points="11.74 4.93 1.34 10.93 1.32 10.89 11.74 4.87 11.74 4.93"/><polygon class="cls-356" points="11.74 4.98 1.36 10.97 1.34 10.93 11.74 4.93 11.74 4.98"/><polygon class="cls-357" points="11.74 5.03 1.39 11.01 1.36 10.97 11.74 4.98 11.74 5.03"/><polygon class="cls-358" points="11.74 5.09 1.41 11.05 1.39 11.01 11.74 5.03 11.74 5.09"/><polygon class="cls-358" points="11.74 5.14 1.43 11.09 1.41 11.05 11.74 5.09 11.74 5.14"/><polygon class="cls-359" points="11.74 5.19 1.46 11.13 1.43 11.09 11.74 5.14 11.74 5.19"/><polygon class="cls-359" points="11.74 5.25 1.48 11.17 1.46 11.13 11.74 5.19 11.74 5.25"/><polygon class="cls-360" points="11.74 5.3 1.5 11.21 1.48 11.17 11.74 5.25 11.74 5.3"/><polygon class="cls-360" points="11.74 5.35 1.52 11.25 1.5 11.21 11.74 5.3 11.74 5.35"/><polygon class="cls-360" points="11.74 5.41 1.55 11.29 1.52 11.25 11.74 5.35 11.74 5.41"/><polygon class="cls-361" points="11.74 5.46 1.57 11.33 1.55 11.29 11.74 5.41 11.74 5.46"/><polygon class="cls-362" points="11.74 5.51 1.59 11.37 1.57 11.33 11.74 5.46 11.74 5.51"/><polygon class="cls-362" points="11.74 5.57 1.62 11.41 1.59 11.37 11.74 5.51 11.74 5.57"/><polygon class="cls-363" points="11.74 5.62 1.64 11.45 1.62 11.41 11.74 5.57 11.74 5.62"/><polygon class="cls-363" points="11.74 5.67 1.66 11.49 1.64 11.45 11.74 5.62 11.74 5.67"/><polygon class="cls-364" points="11.74 5.72 1.68 11.53 1.66 11.49 11.74 5.67 11.74 5.72"/><polygon class="cls-364" points="11.74 5.78 1.71 11.57 1.68 11.53 11.74 5.72 11.74 5.78"/><polygon class="cls-365" points="11.74 5.83 1.73 11.61 1.71 11.57 11.74 5.78 11.74 5.83"/><polygon class="cls-365" points="11.74 5.88 1.75 11.65 1.73 11.61 11.74 5.83 11.74 5.88"/><polygon class="cls-365" points="11.74 5.94 1.78 11.69 1.75 11.65 11.74 5.88 11.74 5.94"/><polygon class="cls-365" points="11.74 5.99 1.8 11.73 1.78 11.69 11.74 5.94 11.74 5.99"/><polygon class="cls-366" points="11.74 6.04 1.87 11.74 1.81 11.74 1.8 11.73 11.74 5.99 11.74 6.04"/><polygon class="cls-366" points="11.74 6.1 1.96 11.74 1.87 11.74 11.74 6.04 11.74 6.1"/><polygon class="cls-366" points="11.74 6.15 2.06 11.74 1.96 11.74 11.74 6.1 11.74 6.15"/><polygon class="cls-366" points="11.74 6.2 2.15 11.74 2.06 11.74 11.74 6.15 11.74 6.2"/><polygon class="cls-367" points="11.74 6.26 2.24 11.74 2.15 11.74 11.74 6.2 11.74 6.26"/><polygon class="cls-367" points="11.74 6.31 2.33 11.74 2.24 11.74 11.74 6.26 11.74 6.31"/><polygon class="cls-367" points="11.74 6.36 2.42 11.74 2.33 11.74 11.74 6.31 11.74 6.36"/><polygon class="cls-367" points="11.74 6.42 2.52 11.74 2.42 11.74 11.74 6.36 11.74 6.42"/><polygon class="cls-367" points="11.74 6.47 2.61 11.74 2.52 11.74 11.74 6.42 11.74 6.47"/><polygon class="cls-368" points="11.74 6.52 2.7 11.74 2.61 11.74 11.74 6.47 11.74 6.52"/><polygon class="cls-368" points="11.74 6.58 2.79 11.74 2.7 11.74 11.74 6.52 11.74 6.58"/><polygon class="cls-368" points="11.74 6.63 2.88 11.74 2.79 11.74 11.74 6.58 11.74 6.63"/><polygon class="cls-368" points="11.74 6.68 2.98 11.74 2.88 11.74 11.74 6.63 11.74 6.68"/><polygon class="cls-368" points="11.74 6.74 3.07 11.74 2.98 11.74 11.74 6.68 11.74 6.74"/><polygon class="cls-369" points="11.74 6.79 3.16 11.74 3.07 11.74 11.74 6.74 11.74 6.79"/><polygon class="cls-369" points="11.74 6.84 3.25 11.74 3.16 11.74 11.74 6.79 11.74 6.84"/><polygon class="cls-369" points="11.74 6.89 3.35 11.74 3.25 11.74 11.74 6.84 11.74 6.89"/><polygon class="cls-369" points="11.74 6.95 3.44 11.74 3.35 11.74 11.74 6.89 11.74 6.95"/><polygon class="cls-370" points="11.74 7 3.53 11.74 3.44 11.74 11.74 6.95 11.74 7"/><polygon class="cls-370" points="11.74 7.05 3.62 11.74 3.53 11.74 11.74 7 11.74 7.05"/><polygon class="cls-370" points="11.74 7.11 3.71 11.74 3.62 11.74 11.74 7.05 11.74 7.11"/><polygon class="cls-370" points="11.74 7.16 3.81 11.74 3.71 11.74 11.74 7.11 11.74 7.16"/><polygon class="cls-371" points="11.74 7.21 3.9 11.74 3.81 11.74 11.74 7.16 11.74 7.21"/><polygon class="cls-372" points="11.74 7.27 3.99 11.74 3.9 11.74 11.74 7.21 11.74 7.27"/><polygon class="cls-372" points="11.74 7.32 4.08 11.74 3.99 11.74 11.74 7.27 11.74 7.32"/><polygon class="cls-372" points="11.74 7.37 4.17 11.74 4.08 11.74 11.74 7.32 11.74 7.37"/><polygon class="cls-372" points="11.74 7.43 4.26 11.74 4.17 11.74 11.74 7.37 11.74 7.43"/><polygon class="cls-372" points="11.74 7.48 4.36 11.74 4.26 11.74 11.74 7.43 11.74 7.48"/><polygon class="cls-372" points="11.74 7.53 4.45 11.74 4.36 11.74 11.74 7.48 11.74 7.53"/><polygon class="cls-372" points="11.74 7.59 4.54 11.74 4.45 11.74 11.74 7.53 11.74 7.59"/><polygon class="cls-372" points="11.74 7.64 4.63 11.74 4.54 11.74 11.74 7.59 11.74 7.64"/><polygon class="cls-372" points="11.74 7.69 4.73 11.74 4.63 11.74 11.74 7.64 11.74 7.69"/><polygon class="cls-372" points="11.74 7.75 4.82 11.74 4.73 11.74 11.74 7.69 11.74 7.75"/><polygon class="cls-373" points="11.74 7.8 4.91 11.74 4.82 11.74 11.74 7.75 11.74 7.8"/><polygon class="cls-373" points="11.74 7.85 5 11.74 4.91 11.74 11.74 7.8 11.74 7.85"/><polygon class="cls-373" points="11.74 7.91 5.09 11.74 5 11.74 11.74 7.85 11.74 7.91"/><polygon class="cls-373" points="11.74 7.96 5.19 11.74 5.09 11.74 11.74 7.91 11.74 7.96"/><polygon class="cls-373" points="11.74 8.01 5.28 11.74 5.19 11.74 11.74 7.96 11.74 8.01"/><polygon class="cls-373" points="11.74 8.06 5.37 11.74 5.28 11.74 11.74 8.01 11.74 8.06"/><polygon class="cls-373" points="11.74 8.12 5.46 11.74 5.37 11.74 11.74 8.06 11.74 8.12"/><polygon class="cls-373" points="11.74 8.17 5.55 11.74 5.46 11.74 11.74 8.12 11.74 8.17"/><polygon class="cls-373" points="11.74 8.22 5.65 11.74 5.55 11.74 11.74 8.17 11.74 8.22"/><polygon class="cls-373" points="11.74 8.28 5.74 11.74 5.65 11.74 11.74 8.22 11.74 8.28"/><polygon class="cls-373" points="11.74 8.33 5.83 11.74 5.74 11.74 11.74 8.28 11.74 8.33"/><polygon class="cls-373" points="11.74 8.38 5.92 11.74 5.83 11.74 11.74 8.33 11.74 8.38"/><polygon class="cls-373" points="11.74 8.44 6.01 11.74 5.92 11.74 11.74 8.38 11.74 8.44"/><polygon class="cls-373" points="11.74 8.49 6.11 11.74 6.01 11.74 11.74 8.44 11.74 8.49"/><polygon class="cls-373" points="11.74 8.54 6.2 11.74 6.11 11.74 11.74 8.49 11.74 8.54"/><polygon class="cls-373" points="11.74 8.6 6.29 11.74 6.2 11.74 11.74 8.54 11.74 8.6"/><polygon class="cls-373" points="11.74 8.65 6.38 11.74 6.29 11.74 11.74 8.6 11.74 8.65"/><polygon class="cls-373" points="11.74 8.7 6.47 11.74 6.38 11.74 11.74 8.65 11.74 8.7"/><polygon class="cls-373" points="11.74 8.76 6.57 11.74 6.47 11.74 11.74 8.7 11.74 8.76"/><polygon class="cls-373" points="11.74 8.81 6.66 11.74 6.57 11.74 11.74 8.76 11.74 8.81"/><polygon class="cls-373" points="11.74 8.86 6.75 11.74 6.66 11.74 11.74 8.81 11.74 8.86"/><polygon class="cls-373" points="11.74 8.91 6.84 11.74 6.75 11.74 11.74 8.86 11.74 8.91"/><polygon class="cls-373" points="11.74 8.97 6.93 11.74 6.84 11.74 11.74 8.91 11.74 8.97"/><polygon class="cls-373" points="11.74 9.02 7.03 11.74 6.93 11.74 11.74 8.97 11.74 9.02"/><polygon class="cls-373" points="11.74 9.07 7.12 11.74 7.03 11.74 11.74 9.02 11.74 9.07"/><polygon class="cls-373" points="11.74 9.13 7.21 11.74 7.12 11.74 11.74 9.07 11.74 9.13"/><polygon class="cls-373" points="11.74 9.18 7.3 11.74 7.21 11.74 11.74 9.13 11.74 9.18"/><polygon class="cls-373" points="11.74 9.23 7.39 11.74 7.3 11.74 11.74 9.18 11.74 9.23"/><polygon class="cls-373" points="11.74 9.29 7.49 11.74 7.39 11.74 11.74 9.23 11.74 9.29"/><polygon class="cls-373" points="11.74 9.34 7.58 11.74 7.49 11.74 11.74 9.29 11.74 9.34"/><polygon class="cls-373" points="11.74 9.39 7.67 11.74 7.58 11.74 11.74 9.34 11.74 9.39"/><polygon class="cls-373" points="11.74 9.45 7.76 11.74 7.67 11.74 11.74 9.39 11.74 9.45"/><polygon class="cls-373" points="11.74 9.5 7.86 11.74 7.76 11.74 11.74 9.45 11.74 9.5"/><polygon class="cls-373" points="11.74 9.55 7.95 11.74 7.86 11.74 11.74 9.5 11.74 9.55"/><polygon class="cls-373" points="11.74 9.61 8.04 11.74 7.95 11.74 11.74 9.55 11.74 9.61"/><polygon class="cls-373" points="8.04 11.74 11.74 9.61 11.74 11.74 8.04 11.74"/><polygon class="cls-202" points="4.52 0.22 0.22 2.7 0.22 0.22 4.52 0.22"/><polygon class="cls-202" points="4.61 0.22 0.22 2.76 0.22 2.7 4.52 0.22 4.61 0.22"/><polygon class="cls-205" points="4.71 0.22 0.22 2.81 0.22 2.76 4.61 0.22 4.71 0.22"/><polygon class="cls-206" points="4.8 0.22 0.22 2.86 0.22 2.81 4.71 0.22 4.8 0.22"/><polygon class="cls-207" points="4.89 0.22 0.22 2.92 0.22 2.86 4.8 0.22 4.89 0.22"/><polygon class="cls-208" points="4.98 0.22 0.22 2.97 0.22 2.92 4.89 0.22 4.98 0.22"/><polygon class="cls-209" points="5.07 0.22 0.22 3.02 0.22 2.97 4.98 0.22 5.07 0.22"/><polygon class="cls-210" points="5.17 0.22 0.22 3.08 0.22 3.02 5.07 0.22 5.17 0.22"/><polygon class="cls-211" points="5.26 0.22 0.22 3.13 0.22 3.08 5.17 0.22 5.26 0.22"/><polygon class="cls-212" points="5.35 0.22 0.22 3.18 0.22 3.13 5.26 0.22 5.35 0.22"/><polygon class="cls-213" points="5.44 0.22 0.22 3.23 0.22 3.18 5.35 0.22 5.44 0.22"/><polygon class="cls-214" points="5.53 0.22 0.22 3.29 0.22 3.23 5.44 0.22 5.53 0.22"/><polygon class="cls-215" points="5.63 0.22 0.22 3.34 0.22 3.29 5.53 0.22 5.63 0.22"/><polygon class="cls-216" points="5.72 0.22 0.22 3.4 0.22 3.34 5.63 0.22 5.72 0.22"/><polygon class="cls-217" points="5.81 0.22 0.22 3.45 0.22 3.4 5.72 0.22 5.81 0.22"/><polygon class="cls-218" points="5.9 0.22 0.22 3.5 0.22 3.45 5.81 0.22 5.9 0.22"/><polygon class="cls-219" points="5.99 0.22 0.22 3.55 0.22 3.5 5.9 0.22 5.99 0.22"/><polygon class="cls-220" points="6.08 0.22 0.22 3.61 0.22 3.55 5.99 0.22 6.08 0.22"/><polygon class="cls-221" points="6.18 0.22 0.22 3.66 0.22 3.61 6.08 0.22 6.18 0.22"/><polygon class="cls-222" points="6.27 0.22 0.22 3.71 0.22 3.66 6.18 0.22 6.27 0.22"/><polygon class="cls-223" points="6.36 0.22 0.22 3.77 0.22 3.71 6.27 0.22 6.36 0.22"/><polygon class="cls-224" points="6.45 0.22 0.22 3.82 0.22 3.77 6.36 0.22 6.45 0.22"/><polygon class="cls-225" points="6.55 0.22 0.22 3.87 0.22 3.82 6.45 0.22 6.55 0.22"/><polygon class="cls-226" points="6.64 0.22 0.22 3.93 0.22 3.87 6.55 0.22 6.64 0.22"/><polygon class="cls-227" points="6.73 0.22 0.22 3.98 0.22 3.93 6.64 0.22 6.73 0.22"/><polygon class="cls-228" points="6.82 0.22 0.22 4.03 0.22 3.98 6.73 0.22 6.82 0.22"/><polygon class="cls-229" points="6.92 0.22 0.22 4.08 0.22 4.03 6.82 0.22 6.92 0.22"/><polygon class="cls-230" points="7.01 0.22 0.22 4.14 0.22 4.08 6.92 0.22 7.01 0.22"/><polygon class="cls-231" points="7.1 0.22 0.22 4.19 0.22 4.14 7.01 0.22 7.1 0.22"/><polygon class="cls-232" points="7.19 0.22 0.22 4.25 0.22 4.19 7.1 0.22 7.19 0.22"/><polygon class="cls-233" points="7.28 0.22 0.22 4.3 0.22 4.25 7.19 0.22 7.28 0.22"/><polygon class="cls-234" points="7.38 0.22 0.22 4.35 0.22 4.3 7.28 0.22 7.38 0.22"/><polygon class="cls-235" points="7.47 0.22 0.22 4.4 0.22 4.35 7.38 0.22 7.47 0.22"/><polygon class="cls-236" points="7.56 0.22 0.22 4.46 0.22 4.4 7.47 0.22 7.56 0.22"/><polygon class="cls-237" points="7.65 0.22 0.22 4.51 0.22 4.46 7.56 0.22 7.65 0.22"/><polygon class="cls-238" points="7.74 0.22 0.22 4.56 0.22 4.51 7.65 0.22 7.74 0.22"/><polygon class="cls-239" points="7.83 0.22 0.22 4.62 0.22 4.56 7.74 0.22 7.83 0.22"/><polygon class="cls-240" points="7.93 0.22 0.22 4.67 0.22 4.62 7.83 0.22 7.93 0.22"/><polygon class="cls-241" points="8.02 0.22 0.22 4.72 0.22 4.67 7.93 0.22 8.02 0.22"/><polygon class="cls-242" points="8.11 0.22 0.22 4.78 0.22 4.72 8.02 0.22 8.11 0.22"/><polygon class="cls-243" points="8.2 0.22 0.22 4.83 0.22 4.78 8.11 0.22 8.2 0.22"/><polygon class="cls-244" points="8.29 0.22 0.22 4.88 0.22 4.83 8.2 0.22 8.29 0.22"/><polygon class="cls-245" points="8.39 0.22 0.22 4.94 0.22 4.88 8.29 0.22 8.39 0.22"/><polygon class="cls-246" points="8.48 0.22 0.22 4.99 0.22 4.94 8.39 0.22 8.48 0.22"/><polygon class="cls-247" points="8.57 0.22 0.22 5.04 0.22 4.99 8.48 0.22 8.57 0.22"/><polygon class="cls-248" points="8.66 0.22 0.22 5.09 0.22 5.04 8.57 0.22 8.66 0.22"/><polygon class="cls-249" points="8.76 0.22 0.22 5.15 0.22 5.09 8.66 0.22 8.76 0.22"/><polygon class="cls-250" points="8.85 0.22 0.22 5.2 0.22 5.15 8.76 0.22 8.85 0.22"/><polygon class="cls-251" points="8.94 0.22 0.22 5.25 0.22 5.2 8.85 0.22 8.94 0.22"/><polygon class="cls-252" points="9.03 0.22 0.22 5.31 0.22 5.25 8.94 0.22 9.03 0.22"/><polygon class="cls-253" points="9.12 0.22 0.22 5.36 0.22 5.31 9.03 0.22 9.12 0.22"/><polygon class="cls-254" points="9.22 0.22 0.22 5.41 0.22 5.36 9.12 0.22 9.22 0.22"/><polygon class="cls-255" points="9.31 0.22 0.22 5.47 0.22 5.41 9.22 0.22 9.31 0.22"/><polygon class="cls-256" points="9.4 0.22 0.22 5.52 0.22 5.47 9.31 0.22 9.4 0.22"/><polygon class="cls-257" points="9.49 0.22 0.22 5.57 0.22 5.52 9.4 0.22 9.49 0.22"/><polygon class="cls-258" points="9.58 0.22 0.22 5.63 0.22 5.57 9.49 0.22 9.58 0.22"/><polygon class="cls-259" points="9.68 0.22 0.22 5.68 0.22 5.63 9.58 0.22 9.68 0.22"/><polygon class="cls-260" points="9.77 0.22 0.22 5.73 0.22 5.68 9.68 0.22 9.77 0.22"/><polygon class="cls-261" points="9.86 0.22 0.22 5.79 0.22 5.73 9.77 0.22 9.86 0.22"/><polygon class="cls-262" points="9.95 0.22 0.22 5.84 0.22 5.79 9.86 0.22 9.95 0.22"/><polygon class="cls-263" points="10.05 0.22 0.22 5.89 0.22 5.84 9.95 0.22 10.05 0.22"/><polygon class="cls-264" points="10.14 0.22 0.22 5.95 0.22 5.89 10.05 0.22 10.14 0.22"/><polygon class="cls-265" points="10.23 0.22 0.22 6 0.22 5.95 10.14 0.22 10.23 0.22"/><polygon class="cls-266" points="10.32 0.22 0.22 6.05 0.22 6 10.23 0.22 10.32 0.22"/><polygon class="cls-267" points="10.41 0.22 0.22 6.11 0.22 6.05 10.32 0.22 10.41 0.22"/><polygon class="cls-268" points="10.51 0.22 0.22 6.16 0.22 6.11 10.41 0.22 10.51 0.22"/><polygon class="cls-269" points="10.54 0.22 10.55 0.25 0.22 6.21 0.22 6.16 10.51 0.22 10.54 0.22"/><polygon class="cls-270" points="10.55 0.25 10.58 0.29 0.22 6.26 0.22 6.21 10.55 0.25"/><polygon class="cls-271" points="10.58 0.29 10.6 0.33 0.22 6.32 0.22 6.26 10.58 0.29"/><polygon class="cls-272" points="10.6 0.33 10.62 0.36 0.22 6.37 0.22 6.32 10.6 0.33"/><polygon class="cls-273" points="10.62 0.36 10.64 0.41 0.22 6.42 0.22 6.37 10.62 0.36"/><polygon class="cls-274" points="10.64 0.41 10.67 0.45 0.22 6.48 0.22 6.42 10.64 0.41"/><polygon class="cls-275" points="10.67 0.45 10.69 0.48 0.22 6.53 0.22 6.48 10.67 0.45"/><polygon class="cls-276" points="10.69 0.48 10.71 0.53 0.22 6.58 0.22 6.53 10.69 0.48"/><polygon class="cls-277" points="10.71 0.53 10.74 0.56 0.22 6.64 0.22 6.58 10.71 0.53"/><polygon class="cls-278" points="10.74 0.56 10.76 0.6 0.22 6.69 0.22 6.64 10.74 0.56"/><polygon class="cls-279" points="10.76 0.6 10.78 0.64 0.22 6.74 0.22 6.69 10.76 0.6"/><polygon class="cls-280" points="10.78 0.64 10.81 0.68 0.22 6.8 0.22 6.74 10.78 0.64"/><polygon class="cls-281" points="10.81 0.68 10.83 0.72 0.22 6.85 0.22 6.8 10.81 0.68"/><polygon class="cls-282" points="10.83 0.72 10.85 0.76 0.22 6.9 0.22 6.85 10.83 0.72"/><polygon class="cls-283" points="10.85 0.76 10.88 0.8 0.22 6.96 0.22 6.9 10.85 0.76"/><polygon class="cls-284" points="10.88 0.8 10.9 0.84 0.22 7.01 0.22 6.96 10.88 0.8"/><polygon class="cls-285" points="10.9 0.84 10.92 0.88 0.22 7.06 0.22 7.01 10.9 0.84"/><polygon class="cls-286" points="10.92 0.88 10.94 0.92 0.22 7.12 0.22 7.06 10.92 0.88"/><polygon class="cls-287" points="10.94 0.92 10.97 0.96 0.22 7.17 0.22 7.12 10.94 0.92"/><polygon class="cls-288" points="10.97 0.96 10.99 1 0.22 7.22 0.22 7.17 10.97 0.96"/><polygon class="cls-289" points="10.99 1 11.01 1.04 0.22 7.27 0.22 7.22 10.99 1"/><polygon class="cls-290" points="11.01 1.04 11.04 1.08 0.22 7.33 0.22 7.27 11.01 1.04"/><polygon class="cls-291" points="11.04 1.08 11.06 1.12 0.22 7.38 0.22 7.33 11.04 1.08"/><polygon class="cls-292" points="11.06 1.12 11.08 1.16 0.22 7.43 0.22 7.38 11.06 1.12"/><polygon class="cls-293" points="11.08 1.16 11.11 1.2 0.22 7.49 0.22 7.43 11.08 1.16"/><polygon class="cls-294" points="11.11 1.2 11.13 1.24 0.22 7.54 0.22 7.49 11.11 1.2"/><polygon class="cls-295" points="11.13 1.24 11.15 1.28 0.22 7.59 0.22 7.54 11.13 1.24"/><polygon class="cls-296" points="11.15 1.28 11.18 1.32 0.22 7.65 0.22 7.59 11.15 1.28"/><polygon class="cls-297" points="11.18 1.32 11.2 1.36 0.22 7.7 0.22 7.65 11.18 1.32"/><polygon class="cls-298" points="11.2 1.36 11.22 1.4 0.22 7.75 0.22 7.7 11.2 1.36"/><polygon class="cls-299" points="11.22 1.4 11.24 1.44 0.22 7.81 0.22 7.75 11.22 1.4"/><polygon class="cls-300" points="11.24 1.44 11.27 1.48 0.22 7.86 0.22 7.81 11.24 1.44"/><polygon class="cls-301" points="11.27 1.48 11.29 1.52 0.22 7.91 0.22 7.86 11.27 1.48"/><polygon class="cls-302" points="11.29 1.52 11.31 1.56 0.22 7.97 0.22 7.91 11.29 1.52"/><polygon class="cls-303" points="11.31 1.56 11.34 1.6 0.22 8.02 0.22 7.97 11.31 1.56"/><polygon class="cls-304" points="11.34 1.6 11.36 1.64 0.22 8.07 0.22 8.02 11.34 1.6"/><polygon class="cls-305" points="11.36 1.64 11.38 1.68 0.22 8.13 0.22 8.07 11.36 1.64"/><polygon class="cls-306" points="11.38 1.68 11.4 1.72 0.22 8.18 0.22 8.13 11.38 1.68"/><polygon class="cls-307" points="11.4 1.72 11.43 1.76 0.22 8.23 0.22 8.18 11.4 1.72"/><polygon class="cls-308" points="11.43 1.76 11.45 1.8 0.22 8.29 0.22 8.23 11.43 1.76"/><polygon class="cls-309" points="11.45 1.8 11.47 1.84 0.22 8.34 0.22 8.29 11.45 1.8"/><polygon class="cls-310" points="11.47 1.84 11.5 1.88 0.22 8.39 0.22 8.34 11.47 1.84"/><polygon class="cls-311" points="11.5 1.88 11.52 1.92 0.22 8.45 0.22 8.39 11.5 1.88"/><polygon class="cls-312" points="11.52 1.92 11.54 1.96 0.22 8.5 0.22 8.45 11.52 1.92"/><polygon class="cls-313" points="11.54 1.96 11.57 2 0.22 8.55 0.22 8.5 11.54 1.96"/><polygon class="cls-314" points="11.57 2 11.59 2.04 0.22 8.6 0.22 8.55 11.57 2"/><polygon class="cls-315" points="11.59 2.04 11.61 2.08 0.22 8.66 0.22 8.6 11.59 2.04"/><polygon class="cls-316" points="11.61 2.08 11.63 2.12 0.22 8.71 0.22 8.66 11.61 2.08"/><polygon class="cls-316" points="11.63 2.12 11.66 2.16 0.22 8.76 0.22 8.71 11.63 2.12"/><polygon class="cls-317" points="11.66 2.16 11.68 2.2 0.22 8.82 0.22 8.76 11.66 2.16"/><polygon class="cls-318" points="11.68 2.2 11.7 2.24 0.22 8.87 0.22 8.82 11.68 2.2"/><polygon class="cls-319" points="11.7 2.24 11.73 2.28 0.22 8.92 0.22 8.87 11.7 2.24"/><polygon class="cls-320" points="11.73 2.28 11.75 2.32 0.22 8.98 0.22 8.92 11.73 2.28"/><polygon class="cls-321" points="11.75 2.32 11.77 2.36 0.22 9.03 0.22 8.98 11.75 2.32"/><polygon class="cls-322" points="11.77 2.36 11.8 2.4 0.22 9.08 0.22 9.03 11.77 2.36"/><polygon class="cls-323" points="11.8 2.4 11.82 2.44 0.22 9.14 0.22 9.08 11.8 2.4"/><polygon class="cls-324" points="11.82 2.44 11.84 2.48 0.22 9.19 0.22 9.14 11.82 2.44"/><polygon class="cls-325" points="11.84 2.48 11.86 2.52 0.22 9.24 0.22 9.19 11.84 2.48"/><polygon class="cls-326" points="11.86 2.52 11.89 2.56 0.22 9.29 0.22 9.24 11.86 2.52"/><polygon class="cls-327" points="11.89 2.56 11.91 2.6 0.22 9.35 0.22 9.29 11.89 2.56"/><polygon class="cls-328" points="11.91 2.6 11.93 2.64 0.22 9.4 0.22 9.35 11.91 2.6"/><polygon class="cls-329" points="11.93 2.64 11.96 2.68 0.22 9.46 0.22 9.4 11.93 2.64"/><polygon class="cls-330" points="11.96 2.68 11.96 2.69 11.96 2.73 0.23 9.51 0.22 9.49 0.22 9.46 11.96 2.68"/><polygon class="cls-331" points="11.96 2.78 0.25 9.54 0.23 9.51 11.96 2.73 11.96 2.78"/><polygon class="cls-332" points="11.96 2.83 0.27 9.58 0.25 9.54 11.96 2.78 11.96 2.83"/><polygon class="cls-333" points="11.96 2.89 0.29 9.62 0.27 9.58 11.96 2.83 11.96 2.89"/><polygon class="cls-334" points="11.96 2.94 0.32 9.66 0.29 9.62 11.96 2.89 11.96 2.94"/><polygon class="cls-335" points="11.96 2.99 0.34 9.7 0.32 9.66 11.96 2.94 11.96 2.99"/><polygon class="cls-336" points="11.96 3.05 0.36 9.74 0.34 9.7 11.96 2.99 11.96 3.05"/><polygon class="cls-337" points="11.96 3.1 0.39 9.78 0.36 9.74 11.96 3.05 11.96 3.1"/><polygon class="cls-338" points="11.96 3.15 0.41 9.82 0.39 9.78 11.96 3.1 11.96 3.15"/><polygon class="cls-338" points="11.96 3.21 0.43 9.86 0.41 9.82 11.96 3.15 11.96 3.21"/><polygon class="cls-339" points="11.96 3.26 0.46 9.9 0.43 9.86 11.96 3.21 11.96 3.26"/><polygon class="cls-340" points="11.96 3.31 0.48 9.94 0.46 9.9 11.96 3.26 11.96 3.31"/><polygon class="cls-340" points="11.96 3.37 0.5 9.98 0.48 9.94 11.96 3.31 11.96 3.37"/><polygon class="cls-341" points="11.96 3.42 0.53 10.02 0.5 9.98 11.96 3.37 11.96 3.42"/><polygon class="cls-342" points="11.96 3.47 0.55 10.06 0.53 10.02 11.96 3.42 11.96 3.47"/><polygon class="cls-343" points="11.96 3.53 0.57 10.1 0.55 10.06 11.96 3.47 11.96 3.53"/><polygon class="cls-344" points="11.96 3.58 0.59 10.14 0.57 10.1 11.96 3.53 11.96 3.58"/><polygon class="cls-344" points="11.96 3.63 0.62 10.18 0.59 10.14 11.96 3.58 11.96 3.63"/><polygon class="cls-345" points="11.96 3.69 0.64 10.22 0.62 10.18 11.96 3.63 11.96 3.69"/><polygon class="cls-345" points="11.96 3.74 0.66 10.26 0.64 10.22 11.96 3.69 11.96 3.74"/><polygon class="cls-346" points="11.96 3.79 0.69 10.3 0.66 10.26 11.96 3.74 11.96 3.79"/><polygon class="cls-346" points="11.96 3.85 0.71 10.34 0.69 10.3 11.96 3.79 11.96 3.85"/><polygon class="cls-347" points="11.96 3.9 0.73 10.38 0.71 10.34 11.96 3.85 11.96 3.9"/><polygon class="cls-348" points="11.96 3.95 0.76 10.42 0.73 10.38 11.96 3.9 11.96 3.95"/><polygon class="cls-349" points="11.96 4 0.78 10.46 0.76 10.42 11.96 3.95 11.96 4"/><polygon class="cls-349" points="11.96 4.06 0.8 10.5 0.78 10.46 11.96 4 11.96 4.06"/><polygon class="cls-350" points="11.96 4.11 0.82 10.54 0.8 10.5 11.96 4.06 11.96 4.11"/><polygon class="cls-350" points="11.96 4.16 0.85 10.58 0.82 10.54 11.96 4.11 11.96 4.16"/><polygon class="cls-351" points="11.96 4.22 0.87 10.62 0.85 10.58 11.96 4.16 11.96 4.22"/><polygon class="cls-351" points="11.96 4.27 0.89 10.66 0.87 10.62 11.96 4.22 11.96 4.27"/><polygon class="cls-352" points="11.96 4.32 0.92 10.7 0.89 10.66 11.96 4.27 11.96 4.32"/><polygon class="cls-352" points="11.96 4.38 0.94 10.74 0.92 10.7 11.96 4.32 11.96 4.38"/><polygon class="cls-353" points="11.96 4.43 0.96 10.78 0.94 10.74 11.96 4.38 11.96 4.43"/><polygon class="cls-353" points="11.96 4.48 0.98 10.82 0.96 10.78 11.96 4.43 11.96 4.48"/><polygon class="cls-354" points="11.96 4.54 1.01 10.86 0.98 10.82 11.96 4.48 11.96 4.54"/><polygon class="cls-354" points="11.96 4.59 1.03 10.9 1.01 10.86 11.96 4.54 11.96 4.59"/><polygon class="cls-355" points="11.96 4.64 1.05 10.94 1.03 10.9 11.96 4.59 11.96 4.64"/><polygon class="cls-355" points="11.96 4.7 1.08 10.98 1.05 10.94 11.96 4.64 11.96 4.7"/><polygon class="cls-355" points="11.96 4.75 1.1 11.02 1.08 10.98 11.96 4.7 11.96 4.75"/><polygon class="cls-356" points="11.96 4.8 1.12 11.06 1.1 11.02 11.96 4.75 11.96 4.8"/><polygon class="cls-356" points="11.96 4.85 1.15 11.1 1.12 11.06 11.96 4.8 11.96 4.85"/><polygon class="cls-357" points="11.96 4.91 1.17 11.14 1.15 11.1 11.96 4.85 11.96 4.91"/><polygon class="cls-358" points="11.96 4.96 1.19 11.18 1.17 11.14 11.96 4.91 11.96 4.96"/><polygon class="cls-358" points="11.96 5.01 1.22 11.22 1.19 11.18 11.96 4.96 11.96 5.01"/><polygon class="cls-359" points="11.96 5.07 1.24 11.26 1.22 11.22 11.96 5.01 11.96 5.07"/><polygon class="cls-359" points="11.96 5.12 1.26 11.3 1.24 11.26 11.96 5.07 11.96 5.12"/><polygon class="cls-360" points="11.96 5.17 1.28 11.34 1.26 11.3 11.96 5.12 11.96 5.17"/><polygon class="cls-360" points="11.96 5.23 1.31 11.38 1.28 11.34 11.96 5.17 11.96 5.23"/><polygon class="cls-360" points="11.96 5.28 1.33 11.42 1.31 11.38 11.96 5.23 11.96 5.28"/><polygon class="cls-361" points="11.96 5.33 1.35 11.46 1.33 11.42 11.96 5.28 11.96 5.33"/><polygon class="cls-362" points="11.96 5.39 1.38 11.5 1.35 11.46 11.96 5.33 11.96 5.39"/><polygon class="cls-362" points="11.96 5.44 1.4 11.54 1.38 11.5 11.96 5.39 11.96 5.44"/><polygon class="cls-363" points="11.96 5.49 1.42 11.58 1.4 11.54 11.96 5.44 11.96 5.49"/><polygon class="cls-363" points="11.96 5.54 1.45 11.62 1.42 11.58 11.96 5.49 11.96 5.54"/><polygon class="cls-364" points="11.96 5.6 1.47 11.66 1.45 11.62 11.96 5.54 11.96 5.6"/><polygon class="cls-364" points="11.96 5.65 1.49 11.7 1.47 11.66 11.96 5.6 11.96 5.65"/><polygon class="cls-365" points="11.96 5.71 1.51 11.74 1.49 11.7 11.96 5.65 11.96 5.71"/><polygon class="cls-365" points="11.96 5.76 1.54 11.78 1.51 11.74 11.96 5.71 11.96 5.76"/><polygon class="cls-365" points="11.96 5.81 1.56 11.82 1.54 11.78 11.96 5.76 11.96 5.81"/><polygon class="cls-365" points="11.96 5.86 1.58 11.86 1.56 11.82 11.96 5.81 11.96 5.86"/><polygon class="cls-366" points="11.96 5.92 1.61 11.9 1.58 11.86 11.96 5.86 11.96 5.92"/><polygon class="cls-366" points="11.96 5.97 1.63 11.94 1.61 11.9 11.96 5.92 11.96 5.97"/><polygon class="cls-366" points="11.96 6.02 1.68 11.96 1.64 11.96 1.63 11.94 11.96 5.97 11.96 6.02"/><polygon class="cls-366" points="11.96 6.08 1.77 11.96 1.68 11.96 11.96 6.02 11.96 6.08"/><polygon class="cls-367" points="11.96 6.13 1.86 11.96 1.77 11.96 11.96 6.08 11.96 6.13"/><polygon class="cls-367" points="11.96 6.18 1.95 11.96 1.86 11.96 11.96 6.13 11.96 6.18"/><polygon class="cls-367" points="11.96 6.24 2.05 11.96 1.95 11.96 11.96 6.18 11.96 6.24"/><polygon class="cls-367" points="11.96 6.29 2.14 11.96 2.05 11.96 11.96 6.24 11.96 6.29"/><polygon class="cls-367" points="11.96 6.34 2.23 11.96 2.14 11.96 11.96 6.29 11.96 6.34"/><polygon class="cls-368" points="11.96 6.4 2.32 11.96 2.23 11.96 11.96 6.34 11.96 6.4"/><polygon class="cls-368" points="11.96 6.45 2.41 11.96 2.32 11.96 11.96 6.4 11.96 6.45"/><polygon class="cls-368" points="11.96 6.5 2.51 11.96 2.41 11.96 11.96 6.45 11.96 6.5"/><polygon class="cls-368" points="11.96 6.56 2.6 11.96 2.51 11.96 11.96 6.5 11.96 6.56"/><polygon class="cls-368" points="11.96 6.61 2.69 11.96 2.6 11.96 11.96 6.56 11.96 6.61"/><polygon class="cls-369" points="11.96 6.66 2.78 11.96 2.69 11.96 11.96 6.61 11.96 6.66"/><polygon class="cls-369" points="11.96 6.71 2.88 11.96 2.78 11.96 11.96 6.66 11.96 6.71"/><polygon class="cls-369" points="11.96 6.77 2.97 11.96 2.88 11.96 11.96 6.71 11.96 6.77"/><polygon class="cls-369" points="11.96 6.82 3.06 11.96 2.97 11.96 11.96 6.77 11.96 6.82"/><polygon class="cls-370" points="11.96 6.88 3.15 11.96 3.06 11.96 11.96 6.82 11.96 6.88"/><polygon class="cls-370" points="11.96 6.93 3.24 11.96 3.15 11.96 11.96 6.88 11.96 6.93"/><polygon class="cls-370" points="11.96 6.98 3.33 11.96 3.24 11.96 11.96 6.93 11.96 6.98"/><polygon class="cls-370" points="11.96 7.04 3.43 11.96 3.33 11.96 11.96 6.98 11.96 7.04"/><polygon class="cls-371" points="11.96 7.09 3.52 11.96 3.43 11.96 11.96 7.04 11.96 7.09"/><polygon class="cls-372" points="11.96 7.14 3.61 11.96 3.52 11.96 11.96 7.09 11.96 7.14"/><polygon class="cls-372" points="11.96 7.19 3.7 11.96 3.61 11.96 11.96 7.14 11.96 7.19"/><polygon class="cls-372" points="11.96 7.25 3.79 11.96 3.7 11.96 11.96 7.19 11.96 7.25"/><polygon class="cls-372" points="11.96 7.3 3.89 11.96 3.79 11.96 11.96 7.25 11.96 7.3"/><polygon class="cls-372" points="11.96 7.35 3.98 11.96 3.89 11.96 11.96 7.3 11.96 7.35"/><polygon class="cls-372" points="11.96 7.41 4.07 11.96 3.98 11.96 11.96 7.35 11.96 7.41"/><polygon class="cls-372" points="11.96 7.46 4.16 11.96 4.07 11.96 11.96 7.41 11.96 7.46"/><polygon class="cls-372" points="11.96 7.51 4.25 11.96 4.16 11.96 11.96 7.46 11.96 7.51"/><polygon class="cls-372" points="11.96 7.57 4.35 11.96 4.25 11.96 11.96 7.51 11.96 7.57"/><polygon class="cls-372" points="11.96 7.62 4.44 11.96 4.35 11.96 11.96 7.57 11.96 7.62"/><polygon class="cls-373" points="11.96 7.67 4.53 11.96 4.44 11.96 11.96 7.62 11.96 7.67"/><polygon class="cls-373" points="11.96 7.73 4.62 11.96 4.53 11.96 11.96 7.67 11.96 7.73"/><polygon class="cls-373" points="11.96 7.78 4.72 11.96 4.62 11.96 11.96 7.73 11.96 7.78"/><polygon class="cls-373" points="11.96 7.83 4.81 11.96 4.72 11.96 11.96 7.78 11.96 7.83"/><polygon class="cls-373" points="11.96 7.88 4.9 11.96 4.81 11.96 11.96 7.83 11.96 7.88"/><polygon class="cls-373" points="11.96 7.94 4.99 11.96 4.9 11.96 11.96 7.88 11.96 7.94"/><polygon class="cls-373" points="11.96 7.99 5.08 11.96 4.99 11.96 11.96 7.94 11.96 7.99"/><polygon class="cls-373" points="11.96 8.04 5.18 11.96 5.08 11.96 11.96 7.99 11.96 8.04"/><polygon class="cls-373" points="11.96 8.1 5.27 11.96 5.18 11.96 11.96 8.04 11.96 8.1"/><polygon class="cls-373" points="11.96 8.15 5.36 11.96 5.27 11.96 11.96 8.1 11.96 8.15"/><polygon class="cls-373" points="11.96 8.2 5.45 11.96 5.36 11.96 11.96 8.15 11.96 8.2"/><polygon class="cls-373" points="11.96 8.26 5.54 11.96 5.45 11.96 11.96 8.2 11.96 8.26"/><polygon class="cls-373" points="11.96 8.31 5.64 11.96 5.54 11.96 11.96 8.26 11.96 8.31"/><polygon class="cls-373" points="11.96 8.36 5.73 11.96 5.64 11.96 11.96 8.31 11.96 8.36"/><polygon class="cls-373" points="11.96 8.42 5.82 11.96 5.73 11.96 11.96 8.36 11.96 8.42"/><polygon class="cls-373" points="11.96 8.47 5.91 11.96 5.82 11.96 11.96 8.42 11.96 8.47"/><polygon class="cls-373" points="11.96 8.52 6 11.96 5.91 11.96 11.96 8.47 11.96 8.52"/><polygon class="cls-373" points="11.96 8.58 6.1 11.96 6 11.96 11.96 8.52 11.96 8.58"/><polygon class="cls-373" points="11.96 8.63 6.19 11.96 6.1 11.96 11.96 8.58 11.96 8.63"/><polygon class="cls-373" points="11.96 8.68 6.28 11.96 6.19 11.96 11.96 8.63 11.96 8.68"/><polygon class="cls-373" points="11.96 8.74 6.37 11.96 6.28 11.96 11.96 8.68 11.96 8.74"/><polygon class="cls-373" points="11.96 8.79 6.46 11.96 6.37 11.96 11.96 8.74 11.96 8.79"/><polygon class="cls-373" points="11.96 8.84 6.56 11.96 6.46 11.96 11.96 8.79 11.96 8.84"/><polygon class="cls-373" points="11.96 8.89 6.65 11.96 6.56 11.96 11.96 8.84 11.96 8.89"/><polygon class="cls-373" points="11.96 8.95 6.74 11.96 6.65 11.96 11.96 8.89 11.96 8.95"/><polygon class="cls-373" points="11.96 9 6.83 11.96 6.74 11.96 11.96 8.95 11.96 9"/><polygon class="cls-373" points="11.96 9.05 6.92 11.96 6.83 11.96 11.96 9 11.96 9.05"/><polygon class="cls-373" points="11.96 9.11 7.02 11.96 6.92 11.96 11.96 9.05 11.96 9.11"/><polygon class="cls-373" points="11.96 9.16 7.11 11.96 7.02 11.96 11.96 9.11 11.96 9.16"/><polygon class="cls-373" points="11.96 9.21 7.2 11.96 7.11 11.96 11.96 9.16 11.96 9.21"/><polygon class="cls-373" points="11.96 9.27 7.29 11.96 7.2 11.96 11.96 9.21 11.96 9.27"/><polygon class="cls-373" points="11.96 9.32 7.38 11.96 7.29 11.96 11.96 9.27 11.96 9.32"/><polygon class="cls-373" points="11.96 9.37 7.48 11.96 7.38 11.96 11.96 9.32 11.96 9.37"/><polygon class="cls-373" points="11.96 9.43 7.57 11.96 7.48 11.96 11.96 9.37 11.96 9.43"/><polygon class="cls-373" points="11.96 9.48 7.66 11.96 7.57 11.96 11.96 9.43 11.96 9.48"/><polygon class="cls-373" points="7.66 11.96 11.96 9.48 11.96 11.96 7.66 11.96"/></g><path class="cls-203" d="M5.37,6.67,4.84,8.94c-.21.92-.59,1.49-1.65,1.49a.82.82,0,0,1-.9-.83A.79.79,0,0,1,3,8.77h0c.26,0,.63,0,.63.4a.92.92,0,0,1,0,.24.56.56,0,0,0-.39-.16.44.44,0,0,0-.45.43s0,0,0,0a.39.39,0,0,0,.37.41h0c.29,0,.5-.12.64-.74l.26-1.08a2.09,2.09,0,0,1-.79.22C2.3,8.54,2,7.83,2,7A2.27,2.27,0,0,1,4.25,4.67c.6,0,1.2.22,1.2.81C5.45,5.8,5.33,6,5,6a.64.64,0,0,1-.45-.16c.17,0,.28-.34.28-.5a.41.41,0,0,0-.38-.43H4.39C3.68,4.95,3,6.08,3,7c0,.54.21,1,.75,1a.63.63,0,0,0,.55-.22l.28-1.15Z" transform="translate(-1.09 -1.14)"/><path class="cls-203" d="M8.19,8.39,9.55,4.7h.85V8.39l1.51-4,.33.32L10.44,9.19h-1V6.12L8.2,9.19H7.26V5.08a1.31,1.31,0,0,0-1,1.34.8.8,0,0,0,.09.41c-.45,0-.69-.15-.69-.58,0-.8,1.19-1.57,2.26-1.57h.26Z" transform="translate(-1.09 -1.14)"/></svg>